<mxfile host="app.diagrams.net" modified="2022-01-24T09:30:01.527Z" agent="5.0 (Windows NT 10.0; Win64; x64) AppleWebKit/537.36 (KHTML, like Gecko) Chrome/97.0.4692.71 Safari/537.36" etag="LuVdmUSivUoTKCepQ1FD" version="16.4.5" type="github">
  <diagram id="zacrkn34sIO4L3OqYdmY" name="Page-1">
    <mxGraphModel dx="1422" dy="882" grid="1" gridSize="10" guides="1" tooltips="1" connect="1" arrows="1" fold="1" page="1" pageScale="1" pageWidth="1100" pageHeight="850" math="0" shadow="0">
      <root>
        <mxCell id="0" />
        <mxCell id="1" parent="0" />
        <mxCell id="84d6I-7gki2v_Zni0cwv-1" value="" style="endArrow=classic;html=1;rounded=0;strokeWidth=5;" edge="1" parent="1">
          <mxGeometry width="50" height="50" relative="1" as="geometry">
            <mxPoint x="260" y="160" as="sourcePoint" />
            <mxPoint x="260" y="440" as="targetPoint" />
          </mxGeometry>
        </mxCell>
        <mxCell id="84d6I-7gki2v_Zni0cwv-2" value="时间方向" style="text;html=1;align=center;verticalAlign=middle;resizable=0;points=[];autosize=1;strokeColor=none;fillColor=none;" vertex="1" parent="1">
          <mxGeometry x="170" y="280" width="60" height="20" as="geometry" />
        </mxCell>
        <mxCell id="84d6I-7gki2v_Zni0cwv-3" value="" style="rounded=0;whiteSpace=wrap;html=1;fillColor=none;strokeWidth=3;dashed=1;" vertex="1" parent="1">
          <mxGeometry x="340" y="170" width="470" height="80" as="geometry" />
        </mxCell>
        <mxCell id="84d6I-7gki2v_Zni0cwv-4" value="原配置文件:config.property" style="text;html=1;align=center;verticalAlign=middle;resizable=0;points=[];autosize=1;strokeColor=none;fillColor=none;" vertex="1" parent="1">
          <mxGeometry x="850" y="200" width="160" height="20" as="geometry" />
        </mxCell>
        <mxCell id="84d6I-7gki2v_Zni0cwv-5" value="Conf A" style="rounded=1;whiteSpace=wrap;html=1;strokeWidth=3;fillColor=none;" vertex="1" parent="1">
          <mxGeometry x="370" y="195" width="90" height="30" as="geometry" />
        </mxCell>
        <mxCell id="84d6I-7gki2v_Zni0cwv-6" value="Conf B" style="rounded=1;whiteSpace=wrap;html=1;strokeWidth=3;fillColor=none;" vertex="1" parent="1">
          <mxGeometry x="530" y="195" width="90" height="30" as="geometry" />
        </mxCell>
        <mxCell id="84d6I-7gki2v_Zni0cwv-7" value="Conf ...." style="rounded=1;whiteSpace=wrap;html=1;strokeWidth=3;fillColor=none;" vertex="1" parent="1">
          <mxGeometry x="690" y="195" width="90" height="30" as="geometry" />
        </mxCell>
        <mxCell id="84d6I-7gki2v_Zni0cwv-8" value="" style="rounded=0;whiteSpace=wrap;html=1;fillColor=none;strokeWidth=3;dashed=1;strokeColor=#00CC00;" vertex="1" parent="1">
          <mxGeometry x="340" y="345" width="470" height="80" as="geometry" />
        </mxCell>
        <mxCell id="84d6I-7gki2v_Zni0cwv-9" value="原配置文件:&lt;font color=&quot;#00cc00&quot;&gt;config_gray.property&lt;/font&gt;&lt;br&gt;&lt;font color=&quot;#330000&quot;&gt;灰度分流方案:&lt;/font&gt;&lt;font color=&quot;#00cc00&quot;&gt;服务IP sharding,10%生效&lt;/font&gt;" style="text;html=1;align=left;verticalAlign=middle;resizable=0;points=[];autosize=1;strokeColor=none;fillColor=none;" vertex="1" parent="1">
          <mxGeometry x="815" y="370" width="230" height="30" as="geometry" />
        </mxCell>
        <mxCell id="84d6I-7gki2v_Zni0cwv-10" value="Conf A" style="rounded=1;whiteSpace=wrap;html=1;strokeWidth=3;fillColor=none;" vertex="1" parent="1">
          <mxGeometry x="450" y="370" width="90" height="30" as="geometry" />
        </mxCell>
        <mxCell id="84d6I-7gki2v_Zni0cwv-11" value="Conf B" style="rounded=1;whiteSpace=wrap;html=1;strokeWidth=3;fillColor=none;" vertex="1" parent="1">
          <mxGeometry x="630" y="370" width="90" height="30" as="geometry" />
        </mxCell>
        <mxCell id="84d6I-7gki2v_Zni0cwv-13" value="" style="shape=flexArrow;endArrow=classic;html=1;rounded=0;strokeWidth=5;entryX=0.538;entryY=-0.025;entryDx=0;entryDy=0;entryPerimeter=0;" edge="1" parent="1">
          <mxGeometry width="50" height="50" relative="1" as="geometry">
            <mxPoint x="576" y="265" as="sourcePoint" />
            <mxPoint x="575.8600000000001" y="338" as="targetPoint" />
          </mxGeometry>
        </mxCell>
        <mxCell id="84d6I-7gki2v_Zni0cwv-14" value="读取灰度配置文件 + 灰度策略,覆盖配置项" style="text;html=1;align=center;verticalAlign=middle;resizable=0;points=[];autosize=1;strokeColor=none;fillColor=none;fontColor=#00CC00;" vertex="1" parent="1">
          <mxGeometry x="610" y="280" width="240" height="20" as="geometry" />
        </mxCell>
      </root>
    </mxGraphModel>
  </diagram>
</mxfile>
